<svg width="392" height="133" viewBox="0 0 392 133" fill="none" xmlns="http://www.w3.org/2000/svg">
<path d="M77.8146 61.9583H61.6315V60.1852C62.5322 60.1289 63.1982 60.082 63.6298 60.0445C64.0801 59.9882 64.521 59.9037 64.9526 59.7912C65.4029 59.6598 65.6937 59.5472 65.8251 59.4534C65.9752 59.3596 66.1159 59.1626 66.2472 58.8624C66.3786 58.5622 66.4442 58.2807 66.4442 58.0181C66.463 57.7366 66.4724 57.3051 66.4724 56.7234V29.5076C66.4724 28.9072 66.463 28.4757 66.4442 28.213C66.4442 27.9315 66.3786 27.6407 66.2472 27.3405C66.1159 27.0215 65.9752 26.8151 65.8251 26.7213C65.6937 26.6275 65.4029 26.5243 64.9526 26.4117C64.521 26.2804 64.0801 26.2053 63.6298 26.1866C63.1982 26.1491 62.5322 26.1021 61.6315 26.0459V24.329H76.9422C81.3327 24.329 84.6631 25.0327 86.9335 26.4399C88.2093 27.2467 89.2132 28.3819 89.9449 29.8454C90.6954 31.2901 91.0707 33.0069 91.0707 34.9958C91.0707 36.6282 90.8456 38.0917 90.3952 39.3864C89.9637 40.681 89.3633 41.7599 88.594 42.623C87.8247 43.4861 86.9804 44.1991 86.061 44.762C85.1604 45.3061 84.1565 45.7377 83.0495 46.0566C81.3984 46.582 79.2875 46.8447 76.717 46.8447C74.8032 46.8447 73.3021 46.6946 72.2139 46.3944V56.7234C72.2139 57.1925 72.2139 57.5302 72.2139 57.7366C72.2139 57.9242 72.242 58.1682 72.2983 58.4684C72.3734 58.7686 72.439 58.9656 72.4953 59.0594C72.5516 59.1532 72.6923 59.2846 72.9175 59.4534C73.1426 59.6035 73.3584 59.6973 73.5648 59.7349C73.7712 59.7724 74.1089 59.8287 74.578 59.9037C75.0471 59.9788 75.5068 60.0351 75.9571 60.0726C76.4074 60.0914 77.0266 60.1289 77.8146 60.1852V61.9583ZM72.2139 28.3537V42.5948C72.2139 43.3829 72.5891 43.9458 73.3396 44.2835C74.0902 44.6213 75.3098 44.7901 76.9984 44.7901C82.2708 44.7901 84.9071 41.6567 84.9071 35.3898C84.9071 32.4253 84.1378 30.1737 82.5992 28.6352C81.0794 27.0966 78.931 26.3273 76.1541 26.3273C74.972 26.3273 74.0996 26.393 73.5367 26.5243C72.9925 26.6557 72.636 26.8527 72.4672 27.1154C72.2983 27.378 72.2139 27.7908 72.2139 28.3537Z" fill="#313131"/>
<path d="M97.6655 56.7234V29.5639C97.6655 28.9635 97.6562 28.532 97.6374 28.2693C97.6374 27.9878 97.5717 27.697 97.4404 27.3968C97.309 27.0778 97.1683 26.8714 97.0182 26.7776C96.8869 26.6838 96.596 26.5806 96.1457 26.468C95.7142 26.3367 95.2732 26.2616 94.8229 26.2429C94.3914 26.2053 93.7253 26.1584 92.8247 26.1021V24.329H120.434V33.3634H118.577C118.352 31.8624 118.098 30.6897 117.817 29.8454C117.536 29.001 117.085 28.2974 116.466 27.7345C115.847 27.1529 115.068 26.7682 114.13 26.5806C113.192 26.3742 111.925 26.271 110.331 26.271H105.377C104.514 26.271 103.97 26.3836 103.745 26.6088C103.52 26.8339 103.407 27.378 103.407 28.2411V41.2721H110.499C111.25 41.2721 111.897 41.2345 112.441 41.1595C112.986 41.0844 113.436 40.9437 113.792 40.7373C114.168 40.5309 114.468 40.3245 114.693 40.1181C114.918 39.9117 115.106 39.5928 115.256 39.1612C115.406 38.7109 115.509 38.3075 115.565 37.951C115.641 37.5757 115.725 37.0504 115.819 36.3749H117.648V48.5896H115.819C115.744 47.9892 115.678 47.5295 115.622 47.2105C115.565 46.8916 115.481 46.5163 115.368 46.0848C115.256 45.6532 115.125 45.3342 114.974 45.1279C114.824 44.9215 114.618 44.6963 114.355 44.4524C114.111 44.1897 113.811 44.0115 113.455 43.9176C113.117 43.8051 112.704 43.7112 112.216 43.6362C111.728 43.5611 111.156 43.5236 110.499 43.5236H103.407V55.3162C103.407 56.123 103.445 56.7609 103.52 57.23C103.613 57.6803 103.773 58.1119 103.998 58.5247C104.242 58.9187 104.627 59.2095 105.152 59.3971C105.677 59.566 106.334 59.6973 107.122 59.7912C107.929 59.885 108.98 59.9319 110.274 59.9319C112.057 59.9319 113.502 59.8287 114.609 59.6223C115.734 59.4159 116.719 59.0125 117.564 58.4121C118.427 57.8117 119.093 57.0142 119.562 56.0198C120.05 55.0066 120.453 53.665 120.772 51.9951H122.658L121.504 61.9583H92.8247V60.1852C93.7253 60.1289 94.3914 60.082 94.8229 60.0445C95.2732 59.9882 95.7142 59.9037 96.1457 59.7912C96.596 59.6598 96.8869 59.5472 97.0182 59.4534C97.1683 59.3596 97.309 59.1626 97.4404 58.8624C97.5717 58.5622 97.6374 58.2807 97.6374 58.0181C97.6562 57.7366 97.6655 57.3051 97.6655 56.7234Z" fill="#313131"/>
<path d="M134.656 43.9739V56.7234C134.656 57.1549 134.656 57.4927 134.656 57.7366C134.675 57.9618 134.713 58.2057 134.769 58.4684C134.825 58.731 134.882 58.9281 134.938 59.0594C135.013 59.172 135.144 59.3033 135.332 59.4534C135.538 59.5848 135.726 59.6786 135.895 59.7349C136.082 59.7912 136.373 59.8568 136.767 59.9319C137.18 59.9882 137.565 60.0351 137.921 60.0726C138.296 60.0914 138.822 60.1289 139.497 60.1852V61.9583H124.074V60.1852C124.975 60.1289 125.641 60.082 126.072 60.0445C126.523 59.9882 126.964 59.9037 127.395 59.7912C127.845 59.6598 128.136 59.5472 128.268 59.4534C128.418 59.3596 128.558 59.1626 128.69 58.8624C128.821 58.5622 128.887 58.2807 128.887 58.0181C128.906 57.7366 128.915 57.3051 128.915 56.7234V29.5639C128.915 28.9635 128.906 28.532 128.887 28.2693C128.887 27.9878 128.821 27.697 128.69 27.3968C128.558 27.0778 128.418 26.8714 128.268 26.7776C128.136 26.6838 127.845 26.5806 127.395 26.468C126.964 26.3367 126.523 26.2616 126.072 26.2429C125.641 26.2053 124.975 26.1584 124.074 26.1021V24.329H140.848C142.687 24.329 144.301 24.4885 145.689 24.8075C147.096 25.1265 148.241 25.558 149.123 26.1021C150.023 26.6463 150.755 27.3217 151.318 28.1286C151.881 28.9354 152.275 29.7797 152.5 30.6616C152.725 31.5434 152.838 32.5191 152.838 33.5886C152.838 36.0841 152.031 38.1292 150.417 39.7241C148.823 41.319 146.684 42.3697 144 42.8763V42.9889C145.126 43.2516 146.13 43.6362 147.012 44.1428C147.894 44.6306 148.616 45.1748 149.179 45.7752C149.742 46.3756 150.22 47.098 150.614 47.9423C151.027 48.7679 151.337 49.5935 151.543 50.419C151.768 51.2258 151.947 52.1546 152.078 53.2053C152.228 54.2561 152.397 55.1285 152.585 55.8228C152.772 56.517 153.063 57.2019 153.457 57.8773C153.87 58.5528 154.423 59.0782 155.118 59.4534C155.812 59.8287 156.665 60.0726 157.679 60.1852V61.9583H153.119C151.374 61.9583 149.986 61.6018 148.954 60.8888C147.941 60.157 147.237 58.9374 146.843 57.23C146.655 56.4044 146.365 54.9503 145.971 52.8676C145.595 50.7661 145.342 49.4527 145.211 48.9274C144.742 47.0886 143.907 45.8033 142.706 45.0716C141.524 44.3398 140.013 43.9739 138.175 43.9739H134.656ZM134.656 29.0573V41.9475H138.709C141.411 41.9475 143.409 41.3377 144.704 40.1181C145.999 38.8985 146.646 36.9003 146.646 34.1233C146.646 32.7349 146.468 31.5434 146.111 30.549C145.774 29.5545 145.342 28.7946 144.817 28.2693C144.31 27.7252 143.653 27.303 142.847 27.0028C142.04 26.7026 141.289 26.5149 140.595 26.4399C139.919 26.3648 139.113 26.3273 138.175 26.3273C137.443 26.3273 136.87 26.3555 136.458 26.4117C136.045 26.468 135.698 26.5337 135.416 26.6088C135.154 26.6838 134.975 26.8621 134.882 27.1435C134.788 27.4062 134.722 27.6501 134.685 27.8753C134.666 28.1004 134.656 28.4944 134.656 29.0573Z" fill="#313131"/>
<path d="M173.702 61.9583H157.519V60.1852C158.419 60.1289 159.086 60.082 159.517 60.0445C159.967 59.9882 160.408 59.9037 160.84 59.7912C161.29 59.6598 161.581 59.5472 161.712 59.4534C161.862 59.3596 162.003 59.1626 162.135 58.8624C162.266 58.5622 162.332 58.2807 162.332 58.0181C162.35 57.7366 162.36 57.3051 162.36 56.7234V29.5076C162.36 28.9072 162.35 28.4757 162.332 28.213C162.332 27.9315 162.266 27.6407 162.135 27.3405C162.003 27.0215 161.862 26.8151 161.712 26.7213C161.581 26.6275 161.29 26.5243 160.84 26.4117C160.408 26.2804 159.967 26.2053 159.517 26.1866C159.086 26.1491 158.419 26.1021 157.519 26.0459V24.329H172.829C177.22 24.329 180.55 25.0327 182.821 26.4399C184.097 27.2467 185.1 28.3819 185.832 29.8454C186.583 31.2901 186.958 33.0069 186.958 34.9958C186.958 36.6282 186.733 38.0917 186.283 39.3864C185.851 40.681 185.251 41.7599 184.481 42.623C183.712 43.4861 182.868 44.1991 181.948 44.762C181.048 45.3061 180.044 45.7377 178.937 46.0566C177.286 46.582 175.175 46.8447 172.604 46.8447C170.69 46.8447 169.189 46.6946 168.101 46.3944V56.7234C168.101 57.1925 168.101 57.5302 168.101 57.7366C168.101 57.9242 168.129 58.1682 168.186 58.4684C168.261 58.7686 168.326 58.9656 168.383 59.0594C168.439 59.1532 168.58 59.2846 168.805 59.4534C169.03 59.6035 169.246 59.6973 169.452 59.7349C169.658 59.7724 169.996 59.8287 170.465 59.9037C170.934 59.9788 171.394 60.0351 171.844 60.0726C172.295 60.0914 172.914 60.1289 173.702 60.1852V61.9583ZM168.101 28.3537V42.5948C168.101 43.3829 168.476 43.9458 169.227 44.2835C169.977 44.6213 171.197 44.7901 172.886 44.7901C178.158 44.7901 180.794 41.6567 180.794 35.3898C180.794 32.4253 180.025 30.1737 178.486 28.6352C176.967 27.0966 174.818 26.3273 172.041 26.3273C170.859 26.3273 169.987 26.393 169.424 26.5243C168.88 26.6557 168.523 26.8527 168.354 27.1154C168.186 27.378 168.101 27.7908 168.101 28.3537Z" fill="#313131"/>
<path d="M193.553 56.7234V29.5639C193.553 28.9635 193.543 28.532 193.525 28.2693C193.525 27.9878 193.459 27.697 193.328 27.3968C193.196 27.0778 193.056 26.8714 192.906 26.7776C192.774 26.6838 192.483 26.5806 192.033 26.468C191.601 26.3367 191.161 26.2616 190.71 26.2429C190.279 26.2053 189.613 26.1584 188.712 26.1021V24.329H216.322V33.3634H214.464C214.239 31.8624 213.986 30.6897 213.704 29.8454C213.423 29.001 212.973 28.2974 212.353 27.7345C211.734 27.1529 210.956 26.7682 210.017 26.5806C209.079 26.3742 207.813 26.271 206.218 26.271H201.264C200.401 26.271 199.857 26.3836 199.632 26.6088C199.407 26.8339 199.294 27.378 199.294 28.2411V41.2721H206.387C207.137 41.2721 207.785 41.2345 208.329 41.1595C208.873 41.0844 209.323 40.9437 209.68 40.7373C210.055 40.5309 210.355 40.3245 210.58 40.1181C210.805 39.9117 210.993 39.5928 211.143 39.1612C211.293 38.7109 211.396 38.3075 211.453 37.951C211.528 37.5757 211.612 37.0504 211.706 36.3749H213.535V48.5896H211.706C211.631 47.9892 211.565 47.5295 211.509 47.2105C211.453 46.8916 211.368 46.5163 211.256 46.0848C211.143 45.6532 211.012 45.3342 210.862 45.1279C210.712 44.9215 210.505 44.6963 210.243 44.4524C209.999 44.1897 209.698 44.0115 209.342 43.9176C209.004 43.8051 208.591 43.7112 208.104 43.6362C207.616 43.5611 207.043 43.5236 206.387 43.5236H199.294V55.3162C199.294 56.123 199.332 56.7609 199.407 57.23C199.501 57.6803 199.66 58.1119 199.885 58.5247C200.129 58.9187 200.514 59.2095 201.039 59.3971C201.565 59.566 202.221 59.6973 203.009 59.7912C203.816 59.885 204.867 59.9319 206.162 59.9319C207.944 59.9319 209.389 59.8287 210.496 59.6223C211.622 59.4159 212.607 59.0125 213.451 58.4121C214.314 57.8117 214.98 57.0142 215.449 56.0198C215.937 55.0066 216.341 53.665 216.659 51.9951H218.545L217.391 61.9583H188.712V60.1852C189.613 60.1289 190.279 60.082 190.71 60.0445C191.161 59.9882 191.601 59.9037 192.033 59.7912C192.483 59.6598 192.774 59.5472 192.906 59.4534C193.056 59.3596 193.196 59.1626 193.328 58.8624C193.459 58.5622 193.525 58.2807 193.525 58.0181C193.543 57.7366 193.553 57.3051 193.553 56.7234ZM201.321 21.8523L200.702 20.5014L206.556 15.9138C207.569 15.1633 208.301 14.6567 208.751 14.394C209.22 14.1313 209.661 14 210.074 14C210.524 14 210.965 14.3284 211.396 14.9851C211.828 15.623 212.044 16.2328 212.044 16.8145C212.044 17.3398 211.79 17.7714 211.284 18.1091C210.796 18.4468 210.027 18.8033 208.976 19.1786L201.321 21.8523Z" fill="#313131"/>
<path d="M237.833 26.3273V56.7234C237.833 57.4364 237.852 57.9524 237.889 58.2714C237.927 58.5716 238.049 58.8718 238.255 59.172C238.481 59.4534 238.799 59.6504 239.212 59.763C239.644 59.8568 240.254 59.9319 241.042 59.9882L243.828 60.1852V61.9583H226.181V60.1852L228.94 59.9882C229.709 59.9506 230.3 59.885 230.713 59.7912C231.144 59.6786 231.463 59.4722 231.67 59.172C231.895 58.8718 232.026 58.5622 232.064 58.2432C232.101 57.9242 232.12 57.4176 232.12 56.7234V26.3273H228.996C227.382 26.3273 226.125 26.4211 225.224 26.6088C224.324 26.7964 223.573 27.1998 222.973 27.819C222.391 28.4381 221.978 29.198 221.735 30.0987C221.491 30.9805 221.265 32.2658 221.059 33.9545H219.202V24.329H250.78V33.9545H248.95C248.819 32.8099 248.678 31.8812 248.528 31.1682C248.397 30.4552 248.2 29.7891 247.937 29.1699C247.674 28.5507 247.374 28.0816 247.036 27.7627C246.699 27.4249 246.239 27.1435 245.657 26.9183C245.076 26.6744 244.419 26.5149 243.687 26.4399C242.974 26.3648 242.074 26.3273 240.985 26.3273H237.833Z" fill="#313131"/>
<path d="M275.95 24.329H291.176V26.1021C290.275 26.1584 289.609 26.2053 289.178 26.2429C288.746 26.2616 288.305 26.3367 287.855 26.468C287.423 26.5806 287.133 26.6838 286.983 26.7776C286.851 26.8714 286.71 27.0684 286.56 27.3687C286.429 27.6689 286.354 27.9691 286.335 28.2693C286.335 28.5507 286.335 28.9823 286.335 29.5639V48.3082C286.335 51.5542 285.829 54.2185 284.815 56.3012C282.714 60.6918 278.126 62.8871 271.053 62.8871C264.148 62.8871 259.635 60.7105 257.515 56.3575C256.502 54.2748 255.995 51.6292 255.995 48.4208V29.5639C255.995 28.9635 255.986 28.532 255.967 28.2693C255.967 27.9878 255.902 27.697 255.77 27.3968C255.639 27.0778 255.498 26.8714 255.348 26.7776C255.217 26.6838 254.926 26.5806 254.476 26.468C254.044 26.3367 253.603 26.2616 253.153 26.2429C252.721 26.2053 252.055 26.1584 251.155 26.1021V24.329H266.606V26.1021C265.705 26.1584 265.039 26.2053 264.608 26.2429C264.176 26.2616 263.735 26.3367 263.285 26.468C262.853 26.5806 262.562 26.6838 262.412 26.7776C262.281 26.8714 262.14 27.0684 261.99 27.3687C261.859 27.6689 261.784 27.9691 261.765 28.2693C261.765 28.5507 261.765 28.9823 261.765 29.5639V47.3231C261.765 56.3481 264.88 60.8606 271.109 60.8606C272.685 60.8606 274.064 60.6073 275.246 60.1007C276.428 59.5941 277.366 58.9374 278.061 58.1306C278.755 57.3051 279.308 56.2825 279.721 55.0629C280.153 53.8433 280.434 52.6331 280.566 51.4322C280.716 50.2126 280.791 48.8429 280.791 47.3231V29.5639C280.791 28.9635 280.781 28.532 280.763 28.2693C280.763 27.9878 280.697 27.697 280.566 27.3968C280.434 27.0778 280.294 26.8714 280.143 26.7776C280.012 26.6838 279.721 26.5806 279.271 26.468C278.839 26.3367 278.398 26.2616 277.948 26.2429C277.517 26.2053 276.851 26.1584 275.95 26.1021V24.329Z" fill="#313131"/>
<path d="M310.577 25.4267C309.038 25.4267 307.64 25.68 306.383 26.1866C305.145 26.6744 304.113 27.3687 303.287 28.2693C302.462 29.1699 301.749 30.1831 301.148 31.3089C300.567 32.4159 300.116 33.6636 299.797 35.0521C299.478 36.4218 299.244 37.7634 299.094 39.0768C298.962 40.3714 298.897 41.7317 298.897 43.1577C298.897 44.3586 298.944 45.5219 299.037 46.6477C299.131 47.7734 299.3 48.9367 299.544 50.1376C299.788 51.3384 300.098 52.4548 300.473 53.4868C300.848 54.5 301.345 55.4757 301.964 56.4138C302.584 57.3332 303.287 58.1119 304.075 58.7498C304.863 59.3877 305.811 59.9037 306.918 60.2978C308.025 60.673 309.244 60.8606 310.577 60.8606C312.415 60.8606 314.038 60.4948 315.446 59.763C316.872 59.0313 318.007 58.0931 318.851 56.9486C319.714 55.7853 320.409 54.4062 320.934 52.8113C321.478 51.1977 321.844 49.6216 322.031 48.083C322.238 46.5257 322.341 44.8839 322.341 43.1577C322.341 41.4315 322.238 39.7898 322.031 38.2324C321.844 36.6751 321.478 35.099 320.934 33.5042C320.409 31.8905 319.714 30.5115 318.851 29.3669C318.007 28.2036 316.872 27.2561 315.446 26.5243C314.038 25.7926 312.415 25.4267 310.577 25.4267ZM310.689 23.344C313.691 23.344 316.346 23.8224 318.654 24.7794C320.981 25.7175 322.885 27.0684 324.367 28.8322C325.85 30.5771 326.966 32.6598 327.717 35.0803C328.486 37.4819 328.871 40.1744 328.871 43.1577C328.871 46.1223 328.486 48.8054 327.717 51.2071C326.966 53.6087 325.84 55.6821 324.339 57.427C322.857 59.172 320.953 60.5229 318.626 61.4798C316.299 62.418 313.635 62.8871 310.633 62.8871C307.612 62.8871 304.938 62.418 302.612 61.4798C300.285 60.5229 298.381 59.172 296.898 57.427C295.416 55.6821 294.3 53.6087 293.549 51.2071C292.799 48.8054 292.423 46.1223 292.423 43.1577C292.423 40.1744 292.799 37.4819 293.549 35.0803C294.3 32.6598 295.416 30.5771 296.898 28.8322C298.381 27.0684 300.285 25.7175 302.612 24.7794C304.957 23.8224 307.65 23.344 310.689 23.344Z" fill="#313131"/>
<path d="M40.6484 82.2769C44.8071 82.2769 46.9795 84.9459 46.9795 86.5597C46.9795 88.1114 45.2416 89.0425 44.4347 89.0425C43.7519 89.0425 43.5657 88.9183 43.2553 88.2356C42.076 85.5666 40.4001 84.0148 38.2898 84.0148C35.807 84.0148 34.5656 85.7528 34.5656 88.1114C34.5656 90.2218 35.1863 91.8977 38.7243 94.7529C42.945 98.2908 44.3726 99.7805 44.3726 103.318C44.3726 107.415 40.276 112.381 33.7587 112.381C27.9242 112.381 26 108.905 26 107.105C26 105.987 27.3655 104.436 28.9173 104.436C29.6 104.436 29.7862 104.932 30.0345 105.553C31.1518 108.967 34.069 110.643 36.2415 110.643C38.7863 110.643 40.276 109.277 40.276 106.174C40.276 104.374 39.345 102.263 35.8691 99.2219C32.9518 96.615 30.7173 94.8149 30.7173 91.339C30.7173 86.9942 34.3173 82.2769 40.6484 82.2769Z" fill="#E7B985"/>
<path d="M68.9265 102.884L69.7334 103.629C65.7609 110.084 60.485 112.381 56.3263 112.381C52.9125 112.381 47.8849 110.953 47.8849 102.76C47.8849 97.8564 49.6228 92.3942 52.7263 88.608C55.9539 84.6355 59.8022 82.2769 65.0781 82.2769C69.7954 82.2769 71.5955 84.8838 71.5955 87.9252C71.5955 95.3736 59.6781 97.8564 53.5332 98.6012C53.4711 98.9736 53.347 101.084 53.347 101.332C53.347 105.987 54.4022 109.836 58.8091 109.836C63.2161 109.836 66.692 106.174 68.9265 102.884ZM53.6573 97.2357C61.2919 96.1805 66.754 93.1391 66.754 87.4907C66.754 85.4424 65.5747 83.7666 63.4643 83.7666C58.8091 83.7666 54.7125 90.8425 53.6573 97.2357Z" fill="#E7B985"/>
<path d="M74.0317 84.8217L74.28 83.9528L84.7077 82.339L84.8318 82.5252L81.1076 94.6908H81.2938C85.2042 87.6149 90.7905 82.2769 96.1285 82.2769C100.225 82.2769 101.032 85.3804 99.3561 91.0287L98.3009 94.6908H98.5492C103.018 86.808 108.046 82.2769 113.136 82.2769C117.977 82.2769 118.474 86.1873 117.17 90.7804L112.577 106.67C112.018 108.532 111.832 109.65 113.011 109.65C114.687 109.65 116.984 106.732 118.411 103.691L119.28 104.25C117.294 108.719 114.067 112.443 109.846 112.443C107.115 112.443 106.68 110.27 107.673 106.67L112.825 88.8563C113.57 86.3114 112.701 84.8217 110.715 84.8217C105.749 84.8217 100.722 92.8908 98.5492 97.7943C96.9974 101.332 95.8802 105.615 94.1422 111.636L89.4249 112.319C91.3491 104.87 93.4595 96.9874 95.3216 89.6632C96.3147 86.1252 95.2595 84.8217 93.4595 84.8217C88.556 84.8217 83.0938 93.4494 81.0455 98.4771C79.8662 101.581 78.749 105.677 77.011 111.636L72.2937 112.319L78.3145 87.8632C78.811 86.0011 78.9973 85.1942 77.5076 85.07L74.0317 84.8217Z" fill="#E7B985"/>
<path d="M153.035 88.3218H151.375C151.694 85.4886 151.243 83.3121 150.024 81.7923C148.823 80.2537 146.947 79.4844 144.395 79.4844C142.143 79.4844 140.38 80.1317 139.104 81.4264C137.828 82.7023 137.19 84.3253 137.19 86.2954C137.19 86.7457 137.218 87.1772 137.274 87.59C137.349 87.9841 137.424 88.3406 137.499 88.6595C137.575 88.9597 137.725 89.2881 137.95 89.6446C138.175 89.9823 138.344 90.2544 138.456 90.4608C138.569 90.6672 138.804 90.9299 139.16 91.2488C139.535 91.5678 139.789 91.793 139.92 91.9243C140.051 92.0556 140.361 92.2902 140.849 92.6279C141.355 92.9469 141.684 93.1533 141.834 93.2471C141.984 93.3409 142.359 93.5754 142.96 93.9507C143.56 94.326 143.945 94.5605 144.113 94.6543C145.314 95.4048 146.271 96.0334 146.984 96.54C147.697 97.0278 148.438 97.6189 149.208 98.3131C149.996 98.9886 150.587 99.6359 150.981 100.255C151.393 100.874 151.731 101.597 151.994 102.422C152.275 103.248 152.416 104.139 152.416 105.096C152.416 106.297 152.275 107.451 151.994 108.558C151.712 109.665 151.225 110.744 150.53 111.794C149.855 112.845 149.001 113.755 147.969 114.524C146.937 115.294 145.614 115.913 144.001 116.382C142.387 116.851 140.577 117.086 138.569 117.086C136.449 117.086 134.263 116.663 132.011 115.819C129.76 114.975 128.109 113.858 127.058 112.47L128.831 104.111H130.407C130.276 107.713 130.998 110.453 132.574 112.329C134.169 114.187 136.421 115.115 139.329 115.115C141.843 115.115 143.757 114.412 145.07 113.005C146.384 111.579 147.04 109.862 147.04 107.854C147.04 106.072 146.524 104.542 145.493 103.267C144.479 101.972 142.753 100.583 140.314 99.1011C139.151 98.3881 138.212 97.7877 137.499 97.2999C136.805 96.7933 136.083 96.2116 135.332 95.5549C134.601 94.8982 134.038 94.2603 133.644 93.6411C133.268 93.0032 132.959 92.2714 132.715 91.4458C132.471 90.6015 132.349 89.6727 132.349 88.6595C132.349 87.6276 132.471 86.6237 132.715 85.6481C132.978 84.6536 133.419 83.6592 134.038 82.6647C134.676 81.6703 135.464 80.8072 136.402 80.0754C137.34 79.3249 138.55 78.7151 140.032 78.246C141.515 77.777 143.185 77.5424 145.042 77.5424C146.768 77.5424 148.56 77.8239 150.418 78.3868C152.294 78.9497 153.823 79.7002 155.005 80.6383L153.035 88.3218Z" fill="#313131"/>
<path d="M159.792 80.1317L160.186 78.5275H186.924L184.897 87.6182H183.237C183.274 86.6613 183.293 85.9014 183.293 85.3385C183.312 84.7568 183.293 84.1752 183.237 83.5935C183.18 83.0119 183.115 82.5803 183.04 82.2989C182.965 82.0174 182.796 81.736 182.533 81.4545C182.27 81.1731 182.017 80.9854 181.773 80.8916C181.529 80.7791 181.145 80.6759 180.619 80.582C180.094 80.4882 179.578 80.4413 179.071 80.4413C178.583 80.4226 177.899 80.4132 177.017 80.4132H171.641C171.153 80.4132 170.797 80.5164 170.572 80.7228C170.346 80.9292 170.168 81.3513 170.037 81.9893L166.997 95.5268H173.78C174.981 95.5268 175.919 95.4705 176.594 95.3579C177.289 95.2453 177.88 94.992 178.368 94.598C178.874 94.1852 179.259 93.7255 179.522 93.2189C179.803 92.7123 180.141 91.9243 180.535 90.8548H182.139L179.662 102.31H178.002C178.058 101.409 178.067 100.658 178.03 100.058C177.992 99.4576 177.814 98.9792 177.495 98.6227C177.195 98.2474 176.716 97.9847 176.06 97.8346C175.422 97.6845 174.512 97.6095 173.33 97.6095H166.519L163.761 109.599C163.592 110.35 163.47 110.931 163.395 111.344C163.338 111.738 163.348 112.141 163.423 112.554C163.498 112.967 163.657 113.258 163.901 113.427C164.145 113.596 164.53 113.755 165.055 113.905C165.599 114.055 166.237 114.149 166.969 114.187C167.72 114.224 168.686 114.243 169.868 114.243C171.238 114.243 172.326 114.224 173.133 114.187C173.94 114.13 174.746 114.008 175.553 113.821C176.36 113.614 176.998 113.361 177.467 113.061C177.936 112.761 178.452 112.301 179.015 111.682C179.578 111.044 180.075 110.34 180.507 109.571C180.957 108.802 181.501 107.788 182.139 106.531H183.743L180.647 116.157H152.109L152.39 114.552L155.458 114.243C156.115 114.168 156.593 113.943 156.893 113.567C157.212 113.192 157.484 112.535 157.71 111.597L164.211 83.0025C164.399 82.0456 164.399 81.3889 164.211 81.0324C164.042 80.6759 163.639 80.4695 163.001 80.4132L159.792 80.1317Z" fill="#313131"/>
<path d="M220.84 88.8847H219.151C219.226 87.8527 219.217 86.9146 219.123 86.0702C219.048 85.2259 218.832 84.3816 218.476 83.5372C218.138 82.6929 217.65 81.9893 217.012 81.4264C216.374 80.8447 215.502 80.3756 214.395 80.0191C213.288 79.6627 211.974 79.4844 210.455 79.4844C208.691 79.4844 207.04 79.7377 205.501 80.2443C203.963 80.7321 202.63 81.4076 201.505 82.2707C200.379 83.115 199.356 84.1283 198.437 85.3103C197.536 86.4736 196.786 87.7026 196.185 88.9973C195.604 90.2919 195.116 91.6616 194.722 93.1064C194.328 94.5511 194.046 95.949 193.877 97.2999C193.709 98.6321 193.624 99.9455 193.624 101.24C193.624 105.837 194.609 109.299 196.579 111.625C198.568 113.952 201.251 115.115 204.629 115.115C205.698 115.115 206.608 115.068 207.359 114.975C208.109 114.862 208.7 114.731 209.132 114.581C209.563 114.431 209.91 114.215 210.173 113.933C210.455 113.652 210.642 113.399 210.736 113.173C210.83 112.948 210.924 112.639 211.018 112.245L213.044 103.998C213.25 103.004 213.278 102.328 213.128 101.972C212.997 101.597 212.659 101.39 212.115 101.353L208.09 100.931L208.372 99.3826H223.063L222.782 100.931L220.361 101.184C219.911 101.24 219.564 101.475 219.32 101.887C219.076 102.3 218.851 103.004 218.645 103.998L216.168 114.947C214.517 115.584 212.641 116.1 210.539 116.494C208.438 116.888 206.43 117.086 204.516 117.086C199 117.086 194.741 115.753 191.738 113.089C188.736 110.406 187.235 106.278 187.235 100.705C187.235 98.0973 187.648 95.4236 188.474 92.6842C189.318 89.9448 190.594 87.4868 192.301 85.3103C196.298 80.1317 202.368 77.5424 210.511 77.5424C215.371 77.5424 219.461 78.4618 222.782 80.3006L220.84 88.8847Z" fill="#313131"/>
<path d="M228.244 78.5275H243.048C244.962 78.5275 246.632 78.7057 248.058 79.0622C249.484 79.4187 250.6 79.869 251.407 80.4132C252.214 80.9573 252.861 81.6328 253.349 82.4396C253.837 83.2464 254.156 84.0251 254.306 84.7756C254.456 85.5261 254.531 86.3611 254.531 87.2804C254.531 90.0761 253.556 92.3558 251.604 94.1196C249.653 95.8645 246.979 96.9622 243.583 97.4125V97.6095C244.84 97.9472 245.872 98.4069 246.679 98.9886C247.504 99.5515 248.114 100.255 248.508 101.099C248.921 101.944 249.193 102.816 249.324 103.717C249.456 104.599 249.503 105.668 249.465 106.925C249.465 109.871 249.728 111.776 250.253 112.639C250.591 113.239 251.079 113.689 251.717 113.99C252.355 114.29 253.293 114.477 254.531 114.552L254.053 116.157H249.747C246.313 116.157 244.427 114.778 244.09 112.019C243.864 109.937 243.752 107.188 243.752 103.773C243.714 101.878 243.236 100.518 242.316 99.6922C241.416 98.8666 239.755 98.4538 237.335 98.4538H234.239L231.228 111.597C231.021 112.517 231.002 113.183 231.171 113.596C231.359 114.008 231.781 114.243 232.438 114.299L235.618 114.552L235.337 116.157H220.167L220.504 114.552L223.46 114.243C224.135 114.149 224.632 113.924 224.951 113.567C225.27 113.211 225.542 112.554 225.767 111.597L232.269 83.0588C232.475 82.1769 232.485 81.5296 232.297 81.1168C232.109 80.704 231.697 80.4695 231.059 80.4132L227.906 80.1317L228.244 78.5275ZM234.689 96.5118H238.039C241.491 96.5118 244.108 95.6863 245.891 94.0351C247.692 92.384 248.593 89.9354 248.593 86.6894C248.593 82.5053 246.416 80.4132 242.063 80.4132C240.374 80.4132 239.305 80.5351 238.855 80.7791C238.404 81.023 238.095 81.5952 237.926 82.4959L234.689 96.5118Z" fill="#313131"/>
<path d="M260.782 80.1317L261.176 78.5275H287.913L285.886 87.6182H284.226C284.263 86.6613 284.282 85.9014 284.282 85.3385C284.301 84.7568 284.282 84.1752 284.226 83.5935C284.17 83.0119 284.104 82.5803 284.029 82.2989C283.954 82.0174 283.785 81.736 283.522 81.4545C283.26 81.1731 283.006 80.9854 282.762 80.8916C282.519 80.7791 282.134 80.6759 281.609 80.582C281.083 80.4882 280.567 80.4413 280.061 80.4413C279.573 80.4226 278.888 80.4132 278.006 80.4132H272.63C272.143 80.4132 271.786 80.5164 271.561 80.7228C271.336 80.9292 271.157 81.3513 271.026 81.9893L267.987 95.5268H274.769C275.97 95.5268 276.908 95.4705 277.584 95.3579C278.278 95.2453 278.869 94.992 279.357 94.598C279.864 94.1852 280.248 93.7255 280.511 93.2189C280.792 92.7123 281.13 91.9243 281.524 90.8548H283.128L280.652 102.31H278.991C279.047 101.409 279.057 100.658 279.019 100.058C278.982 99.4576 278.803 98.9792 278.484 98.6227C278.184 98.2474 277.706 97.9847 277.049 97.8346C276.411 97.6845 275.501 97.6095 274.319 97.6095H267.508L264.75 109.599C264.581 110.35 264.459 110.931 264.384 111.344C264.328 111.738 264.337 112.141 264.412 112.554C264.487 112.967 264.647 113.258 264.891 113.427C265.135 113.596 265.519 113.755 266.045 113.905C266.589 114.055 267.227 114.149 267.958 114.187C268.709 114.224 269.675 114.243 270.857 114.243C272.227 114.243 273.315 114.224 274.122 114.187C274.929 114.13 275.736 114.008 276.542 113.821C277.349 113.614 277.987 113.361 278.456 113.061C278.925 112.761 279.441 112.301 280.004 111.682C280.567 111.044 281.064 110.34 281.496 109.571C281.946 108.802 282.49 107.788 283.128 106.531H284.733L281.637 116.157H253.098L253.38 114.552L256.447 114.243C257.104 114.168 257.582 113.943 257.883 113.567C258.202 113.192 258.474 112.535 258.699 111.597L265.2 83.0025C265.388 82.0456 265.388 81.3889 265.2 81.0324C265.031 80.6759 264.628 80.4695 263.99 80.4132L260.782 80.1317Z" fill="#313131"/>
<path d="M295.064 111.428C294.801 112.554 295.017 113.295 295.711 113.652C296.405 114.008 297.597 114.187 299.285 114.187C302.588 114.187 305.515 113.68 308.067 112.667C310.618 111.654 312.71 110.218 314.343 108.361C315.994 106.484 317.242 104.252 318.086 101.662C318.93 99.073 319.353 96.1647 319.353 92.9375C319.353 84.7193 315.318 80.5445 307.25 80.4132C305.618 80.3944 304.455 80.4319 303.76 80.5258C303.066 80.6196 302.569 80.7978 302.269 81.0605C301.987 81.3232 301.781 81.7829 301.65 82.4396L295.064 111.428ZM291.574 80.1317L291.912 78.5275H307.87C309.971 78.5275 311.894 78.6964 313.639 79.0341C315.403 79.3718 317.026 79.9253 318.508 80.6946C320.009 81.4639 321.276 82.4302 322.308 83.5935C323.34 84.7568 324.137 86.2109 324.7 87.9559C325.282 89.6821 325.573 91.6428 325.573 93.8381C325.573 98.5664 324.362 102.797 321.942 106.531C319.878 109.646 317.148 112.029 313.752 113.68C310.356 115.331 306.05 116.157 300.833 116.157H283.834L284.172 114.552L287.183 114.243C287.84 114.149 288.328 113.915 288.647 113.539C288.985 113.164 289.247 112.517 289.435 111.597L295.88 83.0588C296.086 82.1769 296.096 81.5296 295.908 81.1168C295.739 80.704 295.345 80.4695 294.726 80.4132L291.574 80.1317Z" fill="#313131"/>
<path d="M350.061 77.5424C352.331 77.5424 354.404 77.8614 356.28 78.4994C358.176 79.1373 359.845 80.0942 361.29 81.3701C362.735 82.646 363.851 84.3253 364.639 86.408C365.446 88.4907 365.85 90.8923 365.85 93.613C365.85 95.2266 365.596 97.2155 365.09 99.5796C364.602 101.944 363.72 104.28 362.444 106.588C361.656 108.07 360.774 109.402 359.799 110.584C358.823 111.747 357.641 112.845 356.252 113.877C354.883 114.89 353.241 115.678 351.327 116.241C349.413 116.804 347.302 117.086 344.994 117.086C342.274 117.086 339.872 116.701 337.789 115.932C335.726 115.162 334.046 114.074 332.752 112.667C331.476 111.26 330.519 109.618 329.881 107.742C329.243 105.865 328.924 103.773 328.924 101.465C328.924 99.1762 329.252 96.8121 329.909 94.3729C330.566 91.9149 331.485 89.7009 332.667 87.7308C333.493 86.3235 334.431 85.0476 335.482 83.9031C336.551 82.7398 337.789 81.6703 339.197 80.6946C340.604 79.7002 342.236 78.9309 344.094 78.3868C345.951 77.8239 347.94 77.5424 350.061 77.5424ZM350.229 79.4844C348.147 79.4844 346.223 80.0473 344.46 81.1731C342.715 82.2801 341.27 83.7061 340.125 85.451C339 87.196 338.033 89.1755 337.227 91.3895C336.439 93.5848 335.876 95.7332 335.538 97.8346C335.2 99.9173 335.031 101.897 335.031 103.773C335.031 107.432 335.866 110.237 337.536 112.188C339.225 114.14 341.542 115.115 344.488 115.115C346.308 115.115 347.987 114.731 349.526 113.961C351.064 113.192 352.378 112.151 353.466 110.837C354.554 109.505 355.511 108.014 356.337 106.362C357.162 104.693 357.819 102.929 358.307 101.071C358.795 99.195 359.151 97.3749 359.376 95.6112C359.62 93.8475 359.742 92.1494 359.742 90.5171C359.742 86.8583 358.917 84.1095 357.266 82.2707C355.633 80.4132 353.288 79.4844 350.229 79.4844Z" fill="#313131"/>
</svg>
